<svg width="396" height="87" viewBox="0 0 396 87" fill="none" xmlns="http://www.w3.org/2000/svg">
<path d="M24.4853 86.44C17.1253 86.44 11.2053 83.68 6.72531 78.16C2.32531 72.56 0.125313 64.92 0.125313 55.24C0.125313 48.76 1.28531 43.2 3.60531 38.56C6.00531 33.84 9.08531 30.24 12.8453 27.76C16.6853 25.28 20.6853 24.04 24.8453 24.04C28.1253 24.04 30.8853 24.6 33.1253 25.72C35.3653 26.84 37.4853 28.36 39.4853 30.28L38.7653 21.16V0.879996H56.4053V85H42.0053L40.8053 79.12H40.3253C38.2453 81.2 35.8053 82.96 33.0053 84.4C30.2053 85.76 27.3653 86.44 24.4853 86.44ZM29.0453 72.04C30.9653 72.04 32.6853 71.64 34.2053 70.84C35.8053 70.04 37.3253 68.64 38.7653 66.64V42.28C37.2453 40.84 35.6053 39.84 33.8453 39.28C32.1653 38.72 30.5253 38.44 28.9253 38.44C26.1253 38.44 23.6453 39.8 21.4853 42.52C19.3253 45.16 18.2453 49.32 18.2453 55C18.2453 60.84 19.1653 65.16 21.0053 67.96C22.9253 70.68 25.6053 72.04 29.0453 72.04ZM73.4744 85V6.76H91.5944L111.994 45.64L119.674 62.92H120.154C119.834 58.76 119.394 54.12 118.834 49C118.274 43.88 117.994 39 117.994 34.36V6.76H134.794V85H116.674L96.2744 46L88.5944 28.96H88.1144C88.5144 33.28 88.9544 37.92 89.4344 42.88C89.9944 47.84 90.2744 52.64 90.2744 57.28V85H73.4744ZM177.399 86.44C172.359 86.44 167.599 85.24 163.119 82.84C158.719 80.36 155.159 76.8 152.439 72.16C149.719 67.44 148.359 61.8 148.359 55.24C148.359 48.6 149.719 42.96 152.439 38.32C155.159 33.68 158.719 30.16 163.119 27.76C167.599 25.28 172.359 24.04 177.399 24.04C182.439 24.04 187.159 25.28 191.559 27.76C195.959 30.16 199.519 33.68 202.239 38.32C204.959 42.96 206.319 48.6 206.319 55.24C206.319 61.8 204.959 67.44 202.239 72.16C199.519 76.8 195.959 80.36 191.559 82.84C187.159 85.24 182.439 86.44 177.399 86.44ZM177.399 72.16C180.999 72.16 183.719 70.64 185.559 67.6C187.399 64.48 188.319 60.36 188.319 55.24C188.319 50.04 187.399 45.92 185.559 42.88C183.719 39.84 180.999 38.32 177.399 38.32C173.719 38.32 170.959 39.84 169.119 42.88C167.359 45.92 166.479 50.04 166.479 55.24C166.479 60.36 167.359 64.48 169.119 67.6C170.959 70.64 173.719 72.16 177.399 72.16ZM238.158 86.44C230.798 86.44 225.518 84.32 222.318 80.08C219.198 75.84 217.638 70.28 217.638 63.4V39.28H209.478V26.2L218.598 25.48L220.638 9.64H235.278V25.48H249.558V39.28H235.278V63.16C235.278 66.52 235.958 68.96 237.318 70.48C238.758 71.92 240.638 72.64 242.958 72.64C243.918 72.64 244.878 72.52 245.838 72.28C246.878 72.04 247.798 71.76 248.598 71.44L251.358 84.28C249.838 84.76 247.958 85.24 245.718 85.72C243.558 86.2 241.038 86.44 238.158 86.44ZM285.706 86.44C280.026 86.44 274.906 85.2 270.346 82.72C265.786 80.24 262.186 76.68 259.546 72.04C256.906 67.4 255.586 61.8 255.586 55.24C255.586 48.76 256.906 43.2 259.546 38.56C262.266 33.92 265.786 30.36 270.106 27.88C274.426 25.32 278.946 24.04 283.666 24.04C289.346 24.04 294.026 25.32 297.706 27.88C301.466 30.36 304.266 33.76 306.106 38.08C308.026 42.32 308.986 47.16 308.986 52.6C308.986 54.12 308.906 55.64 308.746 57.16C308.586 58.6 308.426 59.68 308.266 60.4H272.626C273.426 64.72 275.226 67.92 278.026 70C280.826 72 284.186 73 288.106 73C292.346 73 296.626 71.68 300.946 69.04L306.826 79.72C303.786 81.8 300.386 83.44 296.626 84.64C292.866 85.84 289.226 86.44 285.706 86.44ZM272.506 48.76H293.986C293.986 45.48 293.186 42.8 291.586 40.72C290.066 38.56 287.546 37.48 284.026 37.48C281.306 37.48 278.866 38.44 276.706 40.36C274.546 42.2 273.146 45 272.506 48.76ZM338.695 86.44C334.775 86.44 330.735 85.68 326.575 84.16C322.495 82.64 318.935 80.64 315.895 78.16L323.815 67.12C326.535 69.12 329.135 70.68 331.615 71.8C334.175 72.84 336.695 73.36 339.175 73.36C341.815 73.36 343.735 72.92 344.935 72.04C346.135 71.08 346.735 69.84 346.735 68.32C346.735 66.96 346.135 65.84 344.935 64.96C343.815 64.08 342.335 63.28 340.495 62.56C338.655 61.76 336.695 60.96 334.615 60.16C332.215 59.2 329.815 58 327.415 56.56C325.095 55.12 323.135 53.28 321.535 51.04C319.935 48.72 319.135 45.92 319.135 42.64C319.135 37.12 321.215 32.64 325.375 29.2C329.615 25.76 335.135 24.04 341.935 24.04C346.495 24.04 350.495 24.84 353.935 26.44C357.455 27.96 360.455 29.68 362.935 31.6L355.015 42.16C352.935 40.56 350.855 39.32 348.775 38.44C346.695 37.56 344.615 37.12 342.535 37.12C337.975 37.12 335.695 38.68 335.695 41.8C335.695 43.72 336.815 45.2 339.055 46.24C341.375 47.2 344.055 48.24 347.095 49.36C349.655 50.24 352.135 51.4 354.535 52.84C357.015 54.2 359.055 56.04 360.655 58.36C362.335 60.6 363.175 63.56 363.175 67.24C363.175 72.6 361.095 77.16 356.935 80.92C352.775 84.6 346.695 86.44 338.695 86.44Z" fill="#002651"/>
<path d="M384.578 86.44C381.538 86.44 378.978 85.4 376.898 83.32C374.898 81.16 373.898 78.52 373.898 75.4C373.898 72.2 374.898 69.56 376.898 67.48C378.978 65.32 381.538 64.24 384.578 64.24C387.618 64.24 390.138 65.32 392.138 67.48C394.218 69.56 395.258 72.2 395.258 75.4C395.258 78.52 394.218 81.16 392.138 83.32C390.138 85.4 387.618 86.44 384.578 86.44Z" fill="#28C7FA"/>
</svg>
